<?xml version="1.0" encoding="UTF-8" standalone="no"?>
<svg
   data-v-0dd9719b=""
   version="1.0"
   width="256.00006"
   height="256"
   viewBox="0 0 256.00007 256"
   preserveAspectRatio="xMidYMid"
   color-interpolation-filters="sRGB"
   id="svg190512"
   sodipodi:docname="logo.svg"
   inkscape:version="1.2.2 (732a01da63, 2022-12-09)"
   inkscape:export-filename="logo.png"
   inkscape:export-xdpi="96"
   inkscape:export-ydpi="96"
   xmlns:inkscape="http://www.inkscape.org/namespaces/inkscape"
   xmlns:sodipodi="http://sodipodi.sourceforge.net/DTD/sodipodi-0.dtd"
   xmlns="http://www.w3.org/2000/svg"
   xmlns:svg="http://www.w3.org/2000/svg">
  <sodipodi:namedview
     id="namedview190514"
     pagecolor="#ffffff"
     bordercolor="#000000"
     borderopacity="0.25"
     inkscape:showpageshadow="2"
     inkscape:pageopacity="0.0"
     inkscape:pagecheckerboard="0"
     inkscape:deskcolor="#d1d1d1"
     showgrid="false"
     inkscape:zoom="1.674"
     inkscape:cx="-115.29271"
     inkscape:cy="187.57467"
     inkscape:window-width="1920"
     inkscape:window-height="1017"
     inkscape:window-x="-8"
     inkscape:window-y="-8"
     inkscape:window-maximized="1"
     inkscape:current-layer="svg190512" />
  <defs
     v-gra="od"
     id="defs190510" />
  <g
     id="g190755"
     transform="matrix(1.0629659,0,0,1.0240002,1.6378901,5.658279)"
     style="fill:#000000">
    <g
       id="g190745"
       style="fill:#000000">
      <path
         d="m 75.424011,13.76604 c 6.01118,-6.710157 12.61261,-12.8922003 18.98105,-19.291702 7.766379,5.4520026 13.171789,13.699904 20.782849,19.400431 2.79589,2.159055 6.52376,1.149425 8.91581,-1.133892 6.38396,-5.840322 12.10002,-12.3174877 18.37526,-18.266539 3.10656,1.693072 5.23455,4.473438 7.76639,6.8810176 4.02299,4.1317174 8.27897,8.0459754 12.16216,12.3174874 -4.22491,4.659831 -8.85368,8.900278 -13.23392,13.389249 -3.96086,3.898725 -7.61106,8.278967 -12.59708,10.950603 a 35.305988,35.305988 0 0 1 -31.2364,1.988195 C 97.263091,36.832205 91.484901,30.199711 85.551381,24.312791 A 144.25284,144.25284 0 0 1 75.424011,13.76604 Z"
         fill="#91e2c0"
         id="path190476"
         style="fill:#000000;stroke-width:1.55328" />
      <path
         d="m 22.659189,35.85364 c 8.776016,-2.205654 17.505433,-4.659831 26.265912,-6.943149 2.19012,6.55483 3.61914,13.311585 5.5452,19.928546 1.66201,5.949051 3.27742,12.115561 2.40758,18.328669 A 35.849635,35.849635 0 0 1 40.304417,93.573417 C 35.100939,96.881898 28.965494,98.233248 23.078574,99.786528 17.191654,101.3398 11.475594,103.01734 5.619739,104.44636 3.118963,95.530548 0.757982,86.661334 -1.540868,77.776589 6.862361,75.073887 15.54518,73.365282 23.932876,70.709178 a 7.6110578,7.6110578 0 0 0 5.203479,-8.931343 C 27.287955,53.06395 24.072671,44.691787 22.659189,35.85364 Z"
         fill="#e6e541"
         id="path190478"
         style="fill:#000000;stroke-width:1.55328" />
      <path
         d="m 182.46034,51.743665 c 2.20565,-7.595525 3.83659,-15.346378 6.36843,-22.817641 8.82262,2.345448 17.66076,4.582168 26.40571,7.17614 -1.8484,8.74495 -4.78409,17.225843 -6.64802,25.955261 a 7.6576561,7.6576561 0 0 0 5.56073,8.791548 c 8.32556,2.485243 16.82199,4.349176 25.14756,6.865485 -2.22119,8.884745 -4.65984,17.70736 -7.02082,26.576572 -9.64585,-2.32991 -19.2917,-4.846222 -28.79775,-7.766382 a 35.383652,35.383652 0 0 1 -22.16527,-26.623174 40.711393,40.711393 0 0 1 1.16496,-18.142277 z"
         fill="#ffb593"
         id="path190480"
         style="fill:#000000;stroke-width:1.55328" />
      <path
         d="M 107.29726,61.405048 A 59.02453,59.02453 0 1 1 71.804881,83.290723 59.319652,59.319652 0 0 1 107.29726,61.405048 m 7.51786,26.79403 A 31.904312,31.904312 0 0 0 88.254081,111.49824 c -3.63467,12.28642 1.81733,26.31251 12.224289,33.55078 a 31.748984,31.748984 0 0 0 38.31935,-1.14942 31.158739,31.158739 0 0 0 11.54085,-26.63871 C 149.74832,99.708858 132.04096,85.480843 114.81512,88.199078 Z"
         fill="#17163a"
         id="path190482"
         style="fill:#000000;stroke-width:1.55328" />
      <path
         d="m 5.588674,134.54887 c 8.962409,2.29885 17.893752,4.65983 26.79403,7.19167 16.992847,4.95496 27.958987,24.0758 23.858337,41.28611 -2.31438,9.009 -4.53557,18.08014 -7.31594,26.98042 -8.760479,-2.26778 -17.489896,-4.65983 -26.265912,-6.94315 1.382417,-8.82261 4.659832,-17.22584 6.477166,-25.93973 a 7.595525,7.595525 0 0 0 -5.203479,-8.91581 c -8.403229,-2.68717 -17.086048,-4.33364 -25.458211,-7.09847 2.267784,-8.88475 4.659831,-17.73843 7.114009,-26.56104 z"
         fill="#54e8e8"
         id="path190484"
         style="fill:#000000;stroke-width:1.55328" />
      <path
         d="m 207.5147,141.07263 c 8.2479,-2.08139 16.41813,-4.65983 24.7437,-6.43056 2.19012,8.93134 5.06368,17.70735 6.86548,26.73189 q -11.23019,2.95123 -22.46038,5.91799 c -2.76484,0.73004 -5.88692,1.7086 -7.28487,4.44237 -1.44455,2.39205 -0.9009,5.28114 -0.24853,7.76639 1.97267,7.76638 4.34918,15.34638 6.07332,23.14383 -8.68282,2.76483 -17.50544,5.01708 -26.32805,7.23827 -2.56291,-7.22274 -4.06959,-14.7406 -6.21311,-22.0876 -2.81143,-9.1954 -2.68717,-19.55576 1.8018,-28.20751 a 35.585578,35.585578 0 0 1 23.06617,-18.63933 z"
         fill="#ec7a8f"
         id="path190486"
         style="fill:#000000;stroke-width:1.55328" />
      <path
         d="m 106.72254,198.29536 a 35.523447,35.523447 0 0 1 37.60484,8.69835 c 5.91799,6.21311 12.23983,11.91364 17.97142,18.23548 q -9.31966,9.84777 -19.18297,19.18297 c -7.23827,-5.452 -12.64368,-12.92327 -19.60236,-18.63933 -1.66201,-1.19602 -3.77446,-2.39204 -5.87139,-1.73967 -3.6036,1.05623 -6.02671,4.10065 -8.62069,6.6325 -4.65983,4.65983 -9.055599,9.44392 -13.979489,13.80863 a 52.811421,52.811421 0 0 1 -8.2945,-7.61106 c -3.75893,-3.86766 -7.76638,-7.4402 -11.21466,-11.63404 a 137.46502,137.46502 0 0 1 11.10593,-11.74278 c 5.88692,-6.01118 11.91364,-12.42622 20.083869,-15.25318 z"
         fill="#8767de"
         id="path190488"
         style="fill:#000000;stroke-width:1.55328" />
    </g>
  </g>
</svg>
