<svg width="1920.01" xmlns="http://www.w3.org/2000/svg" height="1080" id="screenshot-1a0d60be-24b9-80bd-8004-eb341834b0b6" fill="none" version="1.1"><style>@font-face{font-family:&apos;Plus Jakarta Sans&apos;;font-style:normal;font-weight:400;font-display:block;src:url(https://design.penpot.app/internal/gfonts/font/plusjakartasans/v8/LDIbaomQNQcsA88c7O9yZ4KMCoOg4IA6-91aHEjcWuA_qU79QB_VIKg.woff2) format(&apos;woff2&apos;);unicode-range:U+0460-052F, U+1C80-1C88, U+20B4, U+2DE0-2DFF, U+A640-A69F, U+FE2E-FE2F}@font-face{font-family:&apos;Plus Jakarta Sans&apos;;font-style:normal;font-weight:400;font-display:block;src:url(https://design.penpot.app/internal/gfonts/font/plusjakartasans/v8/LDIbaomQNQcsA88c7O9yZ4KMCoOg4IA6-91aHEjcWuA_qU79Qh_VIKg.woff2) format(&apos;woff2&apos;);unicode-range:U+0102-0103, U+0110-0111, U+0128-0129, U+0168-0169, U+01A0-01A1, U+01AF-01B0, U+0300-0301, U+0303-0304, U+0308-0309, U+0323, U+0329, U+1EA0-1EF9, U+20AB}@font-face{font-family:&apos;Plus Jakarta Sans&apos;;font-style:normal;font-weight:400;font-display:block;src:url(https://design.penpot.app/internal/gfonts/font/plusjakartasans/v8/LDIbaomQNQcsA88c7O9yZ4KMCoOg4IA6-91aHEjcWuA_qU79Qx_VIKg.woff2) format(&apos;woff2&apos;);unicode-range:U+0100-02AF, U+0304, U+0308, U+0329, U+1E00-1E9F, U+1EF2-1EFF, U+2020, U+20A0-20AB, U+20AD-20C0, U+2113, U+2C60-2C7F, U+A720-A7FF}@font-face{font-family:&apos;Plus Jakarta Sans&apos;;font-style:normal;font-weight:400;font-display:block;src:url(https://design.penpot.app/internal/gfonts/font/plusjakartasans/v8/LDIbaomQNQcsA88c7O9yZ4KMCoOg4IA6-91aHEjcWuA_qU79TR_V.woff2) format(&apos;woff2&apos;);unicode-range:U+0000-00FF, U+0131, U+0152-0153, U+02BB-02BC, U+02C6, U+02DA, U+02DC, U+0304, U+0308, U+0329, U+2000-206F, U+2074, U+20AC, U+2122, U+2191, U+2193, U+2212, U+2215, U+FEFF, U+FFFD}@font-face{font-family:&apos;Plus Jakarta Sans&apos;;font-style:normal;font-weight:500;font-display:block;src:url(https://design.penpot.app/internal/gfonts/font/plusjakartasans/v8/LDIbaomQNQcsA88c7O9yZ4KMCoOg4IA6-91aHEjcWuA_m079QB_VIKg.woff2) format(&apos;woff2&apos;);unicode-range:U+0460-052F, U+1C80-1C88, U+20B4, U+2DE0-2DFF, U+A640-A69F, U+FE2E-FE2F}@font-face{font-family:&apos;Plus Jakarta Sans&apos;;font-style:normal;font-weight:500;font-display:block;src:url(https://design.penpot.app/internal/gfonts/font/plusjakartasans/v8/LDIbaomQNQcsA88c7O9yZ4KMCoOg4IA6-91aHEjcWuA_m079Qh_VIKg.woff2) format(&apos;woff2&apos;);unicode-range:U+0102-0103, U+0110-0111, U+0128-0129, U+0168-0169, U+01A0-01A1, U+01AF-01B0, U+0300-0301, U+0303-0304, U+0308-0309, U+0323, U+0329, U+1EA0-1EF9, U+20AB}@font-face{font-family:&apos;Plus Jakarta Sans&apos;;font-style:normal;font-weight:500;font-display:block;src:url(https://design.penpot.app/internal/gfonts/font/plusjakartasans/v8/LDIbaomQNQcsA88c7O9yZ4KMCoOg4IA6-91aHEjcWuA_m079Qx_VIKg.woff2) format(&apos;woff2&apos;);unicode-range:U+0100-02AF, U+0304, U+0308, U+0329, U+1E00-1E9F, U+1EF2-1EFF, U+2020, U+20A0-20AB, U+20AD-20C0, U+2113, U+2C60-2C7F, U+A720-A7FF}@font-face{font-family:&apos;Plus Jakarta Sans&apos;;font-style:normal;font-weight:500;font-display:block;src:url(https://design.penpot.app/internal/gfonts/font/plusjakartasans/v8/LDIbaomQNQcsA88c7O9yZ4KMCoOg4IA6-91aHEjcWuA_m079TR_V.woff2) format(&apos;woff2&apos;);unicode-range:U+0000-00FF, U+0131, U+0152-0153, U+02BB-02BC, U+02C6, U+02DA, U+02DC, U+0304, U+0308, U+0329, U+2000-206F, U+2074, U+20AC, U+2122, U+2191, U+2193, U+2212, U+2215, U+FEFF, U+FFFD}</style><g id="shape-1a0d60be-24b9-80bd-8004-eb341834b0b6" data-testid="Board"><defs><clipPath id="frame-clip-1a0d60be-24b9-80bd-8004-eb341834b0b6-render-1" class="frame-clip frame-clip-def"><rect rx="0" ry="0" width="1920.01" height="1080"/></clipPath></defs><g clip-path="url(#frame-clip-1a0d60be-24b9-80bd-8004-eb341834b0b6-render-1)"><g class="fills" id="fills-1a0d60be-24b9-80bd-8004-eb341834b0b6"><rect width="1920.01" height="1080" class="frame-background" style="fill: rgb(255, 255, 255); fill-opacity: 1;" ry="0" rx="0"/></g><g class="frame-children"><g id="shape-1a0d60be-24b9-80bd-8004-eb345efed3f8" data-testid="Board"><defs><clipPath id="frame-clip-1a0d60be-24b9-80bd-8004-eb345efed3f8-render-2" class="frame-clip frame-clip-def"><rect rx="0" ry="0" width="1920" height="80"/></clipPath></defs><g clip-path="url(#frame-clip-1a0d60be-24b9-80bd-8004-eb345efed3f8-render-2)"><g class="fills" id="fills-1a0d60be-24b9-80bd-8004-eb345efed3f8"><rect width="1920" height="80" class="frame-background" style="fill: rgb(0, 0, 0); fill-opacity: 1;" ry="0" rx="0"/></g><g class="frame-children"><g id="shape-1a0d60be-24b9-80bd-8004-eb3a7dd8a83a" data-testid="Board"><g class="fills" id="fills-1a0d60be-24b9-80bd-8004-eb3a7dd8a83a"><rect rx="0" ry="0" x="376" y="23.5" width="208" height="33" class="frame-background"/></g><g class="frame-children"><g id="shape-afff46ca-fbd1-80b9-8004-f12c44e9ce86" data-testid="logo" style="fill: rgb(0, 0, 0);"><g id="shape-afff46ca-fbd1-80b9-8004-f12c44eb017d" data-testid="svg-g" style="fill: rgb(0, 0, 0);"><g id="shape-afff46ca-fbd1-80b9-8004-f12c44ebb900" data-testid="svg-path"><path d="M426.226 26.469c.799-.859 1.676-1.65 2.522-2.469 1.032.698 1.751 1.754 2.762 2.483.371.277.867.147 1.184-.145.849-.747 1.608-1.577 2.442-2.338.413.217.696.573 1.032.881.534.529 1.1 1.03 1.616 1.576-.561.597-1.176 1.14-1.758 1.714-.527.499-1.012 1.06-1.674 1.402a4.851 4.851 0 0 1-4.151.254c-1.073-.405-1.841-1.254-2.629-2.008a18.633 18.633 0 0 1-1.346-1.35Z" color-interpolation-filters="sRGB" style="stroke-width: 1.55328; fill: rgb(255, 255, 255);" class="fills" id="fills-afff46ca-fbd1-80b9-8004-f12c44ebb900"/></g><g id="shape-afff46ca-fbd1-80b9-8004-f12c44ebf6bc" data-testid="svg-path"><path d="M419.215 29.297c1.167-.283 2.326-.597 3.49-.889.291.839.481 1.704.737 2.551.221.761.436 1.55.32 2.346-.16 1.391-.971 2.636-2.202 3.38-.691.423-1.507.596-2.289.795-.782.199-1.541.414-2.32.596a167.81 167.81 0 0 1-.951-3.413c1.117-.346 2.27-.565 3.385-.905a.97.97 0 0 0 .691-1.143c-.245-1.116-.673-2.187-.861-3.318Z" color-interpolation-filters="sRGB" style="stroke-width: 1.55328; fill: rgb(255, 255, 255);" class="fills" id="fills-afff46ca-fbd1-80b9-8004-f12c44ebf6bc"/></g><g id="shape-afff46ca-fbd1-80b9-8004-f12c44ec043b" data-testid="svg-path"><path d="M440.448 31.33c.293-.972.51-1.964.847-2.92 1.172.3 2.346.586 3.508.918-.245 1.12-.636 2.205-.883 3.323-.097.503.225.993.739 1.125 1.106.318 2.235.557 3.341.879-.295 1.137-.619 2.266-.933 3.402a67.348 67.348 0 0 1-3.826-.995c-1.532-.563-2.647-1.854-2.945-3.407a5.072 5.072 0 0 1 .152-2.325Z" color-interpolation-filters="sRGB" style="stroke-width: 1.55328; fill: rgb(255, 255, 255);" class="fills" id="fills-afff46ca-fbd1-80b9-8004-f12c44ec043b"/></g><g id="shape-afff46ca-fbd1-80b9-8004-f12c44eca954" data-testid="svg-path"><path d="M430.461 32.567c3.719-.695 7.422 1.271 8.8 4.671 1.377 3.399.034 7.261-3.19 9.177-3.225 1.915-7.41 1.337-9.945-1.375-2.535-2.712-2.695-6.782-.38-9.672a7.93 7.93 0 0 1 4.715-2.801Zm.999 3.43c-1.692.218-3.083 1.394-3.529 2.982-.483 1.573.242 3.368 1.624 4.295a4.347 4.347 0 0 0 5.092-.148c1.063-.823 1.637-2.099 1.533-3.409-.078-2.247-2.431-4.068-4.72-3.72Z" color-interpolation-filters="sRGB" style="stroke-width: 1.55328; fill: rgb(255, 255, 255);" class="fills" id="fills-afff46ca-fbd1-80b9-8004-f12c44eca954"/></g><g id="shape-afff46ca-fbd1-80b9-8004-f12c44ecc78e" data-testid="svg-path"><path d="M416.947 41.93a144 144 0 0 1 3.56.92c2.258.634 3.715 3.082 3.171 5.285-.308 1.153-.603 2.314-.973 3.453-1.164-.29-2.323-.596-3.49-.889.184-1.129.62-2.204.861-3.32.115-.496-.187-.993-.691-1.141-1.117-.344-2.271-.555-3.383-.909.301-1.137.619-2.27.945-3.399Z" color-interpolation-filters="sRGB" style="stroke-width: 1.55328; fill: rgb(255, 255, 255);" class="fills" id="fills-afff46ca-fbd1-80b9-8004-f12c44ecc78e"/></g><g id="shape-afff46ca-fbd1-80b9-8004-f12c44ed418a" data-testid="svg-path"><path d="M443.777 42.765c1.096-.267 2.182-.597 3.288-.824.291 1.144.673 2.267.912 3.422-.994.252-1.989.504-2.984.758-.367.093-.782.218-.968.568-.192.306-.12.676-.033.994.262.994.578 1.965.807 2.963-1.154.354-2.326.642-3.498.926-.341-.924-.541-1.887-.826-2.827-.373-1.177-.357-2.503.24-3.61a4.624 4.624 0 0 1 3.062-2.37Z" color-interpolation-filters="sRGB" style="stroke-width: 1.55328; fill: rgb(255, 255, 255);" class="fills" id="fills-afff46ca-fbd1-80b9-8004-f12c44ed418a"/></g><g id="shape-afff46ca-fbd1-80b9-8004-f12c44ed418b" data-testid="svg-path"><path d="M430.385 50.089c1.748-.609 3.704-.173 4.997 1.113.786.796 1.626 1.525 2.387 2.335a64.943 64.943 0 0 1-2.548 2.455c-.962-.698-1.68-1.654-2.605-2.386-.221-.153-.501-.306-.78-.222-.479.135-.801.524-1.146.848-.619.597-1.203 1.209-1.857 1.768a6.96 6.96 0 0 1-1.102-.974c-.5-.495-1.032-.953-1.49-1.489.461-.529.953-1.031 1.475-1.503.783-.77 1.583-1.591 2.669-1.945Z" color-interpolation-filters="sRGB" style="stroke-width: 1.55328; fill: rgb(255, 255, 255);" class="fills" id="fills-afff46ca-fbd1-80b9-8004-f12c44ed418b"/></g></g></g><g class="text-container" id="shape-1a0d60be-24b9-80bd-8004-eb3a2980e1ff" data-testid="gAIze"><defs><pattern patternUnits="userSpaceOnUse" x="456" y="23.5" width="64.063" height="30" id="fill-0-render-14-0"><rect width="64.063" height="30" style="fill: rgb(255, 255, 255); fill-opacity: 1;"/></pattern></defs><text x="456" y="52.5" dominant-baseline="ideographic" textLength="64.063" lengthAdjust="spacingAndGlyphs" style="text-transform: none; font-family: &quot;Plus Jakarta Sans&quot;; letter-spacing: normal; font-style: normal; font-weight: 500; white-space: pre; font-size: 24px; text-decoration: none solid rgb(255, 255, 255); direction: ltr; fill: rgb(255, 255, 255); fill-opacity: 1;" class="fills" id="fills-1a0d60be-24b9-80bd-8004-eb3a2980e1ff">gAIze</text></g></g></g><g class="text-container" id="shape-1a0d60be-24b9-80bd-8004-eb34bbd8a028" data-testid="Features"><defs><pattern patternUnits="userSpaceOnUse" x="601.5" y="30" width="66.422" height="21" id="fill-0-render-15-0"><rect width="66.422" height="21" style="fill: rgb(255, 255, 255); fill-opacity: 1;"/></pattern></defs><text x="601.5" y="50" dominant-baseline="ideographic" textLength="66.422" lengthAdjust="spacingAndGlyphs" style="text-transform: none; font-family: &quot;Plus Jakarta Sans&quot;; letter-spacing: normal; font-style: normal; font-weight: 400; white-space: pre; font-size: 16px; text-decoration: none solid rgb(255, 255, 255); direction: ltr; fill: rgb(255, 255, 255); fill-opacity: 1;" class="fills" id="fills-1a0d60be-24b9-80bd-8004-eb34bbd8a028">Features</text></g><g class="text-container" id="shape-1a0d60be-24b9-80bd-8004-eb34dd816ca6" data-testid="Solutions"><defs><pattern patternUnits="userSpaceOnUse" x="729" y="30" width="71.313" height="21" id="fill-0-render-16-0"><rect width="71.313" height="21" style="fill: rgb(255, 255, 255); fill-opacity: 1;"/></pattern></defs><text x="729" y="50" dominant-baseline="ideographic" textLength="71.313" lengthAdjust="spacingAndGlyphs" style="text-transform: none; font-family: &quot;Plus Jakarta Sans&quot;; letter-spacing: normal; font-style: normal; font-weight: 400; white-space: pre; font-size: 16px; text-decoration: none solid rgb(255, 255, 255); direction: ltr; fill: rgb(255, 255, 255); fill-opacity: 1;" class="fills" id="fills-1a0d60be-24b9-80bd-8004-eb34dd816ca6">Solutions</text></g><g class="text-container" id="shape-1a0d60be-24b9-80bd-8004-eb351351b330" data-testid="Resources"><defs><pattern patternUnits="userSpaceOnUse" x="854.5" y="30" width="80.406" height="21" id="fill-0-render-17-0"><rect width="80.406" height="21" style="fill: rgb(255, 255, 255); fill-opacity: 1;"/></pattern></defs><text x="854.5" y="50" dominant-baseline="ideographic" textLength="80.406" lengthAdjust="spacingAndGlyphs" style="text-transform: none; font-family: &quot;Plus Jakarta Sans&quot;; letter-spacing: normal; font-style: normal; font-weight: 400; white-space: pre; font-size: 16px; text-decoration: none solid rgb(255, 255, 255); direction: ltr; fill: rgb(255, 255, 255); fill-opacity: 1;" class="fills" id="fills-1a0d60be-24b9-80bd-8004-eb351351b330">Resources</text></g><g class="text-container" id="shape-1a0d60be-24b9-80bd-8004-eb3501bdddfe" data-testid="For Teams"><defs><pattern patternUnits="userSpaceOnUse" x="986.5" y="30" width="76.172" height="21" id="fill-0-render-18-0"><rect width="76.172" height="21" style="fill: rgb(255, 255, 255); fill-opacity: 1;"/></pattern></defs><text x="986.5" y="50" dominant-baseline="ideographic" textLength="76.172" lengthAdjust="spacingAndGlyphs" style="text-transform: none; font-family: &quot;Plus Jakarta Sans&quot;; letter-spacing: normal; font-style: normal; font-weight: 400; white-space: pre; font-size: 16px; text-decoration: none solid rgb(255, 255, 255); direction: ltr; fill: rgb(255, 255, 255); fill-opacity: 1;" class="fills" id="fills-1a0d60be-24b9-80bd-8004-eb3501bdddfe">For Teams</text></g><g class="text-container" id="shape-1a0d60be-24b9-80bd-8004-eb34ed2fef22" data-testid="Contact"><defs><pattern patternUnits="userSpaceOnUse" x="1123.5" y="30" width="63" height="21" id="fill-0-render-19-0"><rect width="63" height="21" style="fill: rgb(255, 255, 255); fill-opacity: 1;"/></pattern></defs><text x="1123.5" y="50" dominant-baseline="ideographic" textLength="63" lengthAdjust="spacingAndGlyphs" style="text-transform: none; font-family: &quot;Plus Jakarta Sans&quot;; letter-spacing: normal; font-style: normal; font-weight: 400; white-space: pre; font-size: 16px; text-decoration: none solid rgb(255, 255, 255); direction: ltr; fill: rgb(255, 255, 255); fill-opacity: 1;" class="fills" id="fills-1a0d60be-24b9-80bd-8004-eb34ed2fef22">Contact</text></g><g class="text-container" id="shape-1a0d60be-24b9-80bd-8004-eb549b56dc6f" data-testid="For Developers"><defs><pattern patternUnits="userSpaceOnUse" x="1227" y="30" width="115.297" height="21" id="fill-0-render-20-0"><rect width="115.297" height="21" style="fill: rgb(255, 255, 255); fill-opacity: 1;"/></pattern></defs><text x="1227" y="50" dominant-baseline="ideographic" textLength="115.297" lengthAdjust="spacingAndGlyphs" style="text-transform: none; font-family: &quot;Plus Jakarta Sans&quot;; letter-spacing: normal; font-style: normal; font-weight: 400; white-space: pre; font-size: 16px; text-decoration: none solid rgb(255, 255, 255); direction: ltr; fill: rgb(255, 255, 255); fill-opacity: 1;" class="fills" id="fills-1a0d60be-24b9-80bd-8004-eb549b56dc6f">For Developers</text></g><g id="shape-1a0d60be-24b9-80bd-8004-eb528c623b34" data-testid="Board"><g class="fills" id="fills-1a0d60be-24b9-80bd-8004-eb528c623b34"><rect width="124" height="39" class="frame-background" x="1378" style="fill: rgb(255, 255, 255); fill-opacity: 0.25;" ry="19.5" rx="19.5" y="20.5"/></g><g class="frame-children"><g class="text-container" id="shape-1a0d60be-24b9-80bd-8004-eb351ecf5928" data-testid="LOGIN"><defs><pattern patternUnits="userSpaceOnUse" x="1414" y="30" width="51.234" height="21" id="fill-0-render-22-0"><rect width="51.234" height="21" style="fill: rgb(255, 255, 255); fill-opacity: 1;"/></pattern></defs><text x="1414" y="50" dominant-baseline="ideographic" textLength="51.234" lengthAdjust="spacingAndGlyphs" style="text-transform: none; font-family: &quot;Plus Jakarta Sans&quot;; letter-spacing: normal; font-style: normal; font-weight: 400; white-space: pre; font-size: 16px; text-decoration: none solid rgb(255, 255, 255); direction: ltr; fill: rgb(255, 255, 255); fill-opacity: 1;" class="fills" id="fills-1a0d60be-24b9-80bd-8004-eb351ecf5928">LOGIN</text></g></g><g id="strokes-1a0d60be-24b9-80bd-8004-eb528c623b34" class="strokes"><g class="inner-stroke-shape"><defs><clipPath id="inner-stroke-render-21-1a0d60be-24b9-80bd-8004-eb528c623b34-0"><use href="#stroke-shape-render-21-1a0d60be-24b9-80bd-8004-eb528c623b34-0"/></clipPath><rect width="124" height="39" class="frame-background" x="1378" id="stroke-shape-render-21-1a0d60be-24b9-80bd-8004-eb528c623b34-0" style="fill: none; stroke-width: 2; stroke: rgb(255, 255, 255); stroke-opacity: 1;" ry="19.5" rx="19.5" y="20.5"/></defs><use href="#stroke-shape-render-21-1a0d60be-24b9-80bd-8004-eb528c623b34-0" clip-path="url('#inner-stroke-render-21-1a0d60be-24b9-80bd-8004-eb528c623b34-0')"/></g></g></g></g></g></g><g id="shape-1a0d60be-24b9-80bd-8004-eb5d46c9e83a" data-testid="Board"><defs><clipPath id="frame-clip-1a0d60be-24b9-80bd-8004-eb5d46c9e83a-render-23" class="frame-clip frame-clip-def"><rect rx="0" ry="0" y="80" width="1920" height="1000"/></clipPath><pattern patternUnits="userSpaceOnUse" x="0" y="80" width="1920" height="1000" id="fill-0-render-23"><image id="fill-image-render-23-0" href="https://design.penpot.app/assets/by-file-media-id/9d5797a9-683b-81b1-8004-eb8e991d0c65" preserveAspectRatio="xMidYMid slice" width="1920" height="1000" opacity="1"/></pattern></defs><g clip-path="url(#frame-clip-1a0d60be-24b9-80bd-8004-eb5d46c9e83a-render-23)"><g class="fills" id="fills-1a0d60be-24b9-80bd-8004-eb5d46c9e83a"><rect width="1920" height="1000" class="frame-background" ry="0" fill="url(#fill-0-render-23)" rx="0" y="80"/></g><g class="frame-children"><g id="shape-1a0d60be-24b9-80bd-8004-eb6637e4c353" data-testid="Board"><g class="fills" id="fills-1a0d60be-24b9-80bd-8004-eb6637e4c353"><rect rx="0" ry="0" x="408" y="110" width="1104" height="58" class="frame-background"/></g><g class="frame-children"><g class="text-container" id="shape-1a0d60be-24b9-80bd-8004-eb6628fc782b" data-testid="Make Eye Contact"><defs><pattern patternUnits="userSpaceOnUse" x="753.5" y="110" width="412.375" height="61" id="fill-0-render-25-0"><rect width="412.375" height="61" style="fill: rgb(255, 255, 255); fill-opacity: 1;"/></pattern></defs><text x="753.5" y="169" dominant-baseline="ideographic" textLength="412.375" lengthAdjust="spacingAndGlyphs" style="text-transform: none; font-family: &quot;Plus Jakarta Sans&quot;; letter-spacing: normal; font-style: normal; font-weight: 400; white-space: pre; font-size: 48px; text-decoration: none solid rgb(255, 255, 255); direction: ltr; fill: rgb(255, 255, 255); fill-opacity: 1;" class="fills" id="fills-1a0d60be-24b9-80bd-8004-eb6628fc782b">Make Eye Contact</text></g></g></g><g id="shape-f18d120e-35fd-801a-8004-eb98b2554aa0" data-testid="Board"><g class="fills" id="fills-f18d120e-35fd-801a-8004-eb98b2554aa0"><rect rx="0" ry="0" x="408" y="190" width="1104" height="80" class="frame-background"/></g><g class="frame-children"><g class="text-container" id="shape-f18d120e-35fd-801a-8004-eb98b2554aa1" data-testid="Leverage AI to connect with your audience and share your ideas"><defs><pattern patternUnits="userSpaceOnUse" x="726" y="190" width="371.5" height="58.797" id="fill-0-render-27-0"><rect width="371.5" height="58.797" style="fill: rgb(255, 255, 255); fill-opacity: 1;"/></pattern><pattern patternUnits="userSpaceOnUse" x="726" y="190" width="371.5" height="58.797" id="fill-1-render-27-0"><rect width="371.5" height="58.797" style="fill: rgb(255, 255, 255); fill-opacity: 1;"/></pattern></defs><text x="774.25" y="219" dominant-baseline="ideographic" textLength="371.5" lengthAdjust="spacingAndGlyphs" style="text-transform: none; font-family: &quot;Plus Jakarta Sans&quot;; letter-spacing: normal; font-style: normal; font-weight: 400; white-space: pre; font-size: 24px; text-decoration: none solid rgb(255, 255, 255); direction: ltr; fill: rgb(255, 255, 255); fill-opacity: 1;" class="fills" id="fills-f18d120e-35fd-801a-8004-eb98b2554aa1">Leverage AI to connect with your </text><defs><pattern patternUnits="userSpaceOnUse" x="726" y="190" width="371.5" height="58.797" id="fill-0-render-27-1"><rect width="371.5" height="58.797" style="fill: rgb(255, 255, 255); fill-opacity: 1;"/></pattern><pattern patternUnits="userSpaceOnUse" x="726" y="190" width="371.5" height="58.797" id="fill-1-render-27-1"><rect width="371.5" height="58.797" style="fill: rgb(255, 255, 255); fill-opacity: 1;"/></pattern></defs><text x="789.391" y="247.797" dominant-baseline="ideographic" textLength="341.219" lengthAdjust="spacingAndGlyphs" style="text-transform: none; font-family: &quot;Plus Jakarta Sans&quot;; letter-spacing: normal; font-style: normal; font-weight: 400; white-space: pre; font-size: 24px; text-decoration: none solid rgb(255, 255, 255); direction: ltr; fill: rgb(255, 255, 255); fill-opacity: 1;" class="fills">audience and share your ideas</text></g></g></g><g id="shape-1a0d60be-24b9-80bd-8004-eb8ed6acc130" data-testid="Board"><g class="fills" id="fills-1a0d60be-24b9-80bd-8004-eb8ed6acc130"><rect width="132" height="39" class="frame-background" x="894" style="fill: rgb(255, 255, 255); fill-opacity: 0.25;" ry="19.5" rx="19.5" y="290.5"/></g><g class="frame-children"><g class="text-container" id="shape-1a0d60be-24b9-80bd-8004-eb8ed6acc131" data-testid="GENERATE"><defs><pattern patternUnits="userSpaceOnUse" x="918.5" y="300" width="82.375" height="21" id="fill-0-render-29-0"><rect width="82.375" height="21" style="fill: rgb(255, 255, 255); fill-opacity: 1;"/></pattern></defs><text x="918.5" y="320" dominant-baseline="ideographic" textLength="82.375" lengthAdjust="spacingAndGlyphs" style="text-transform: none; font-family: &quot;Plus Jakarta Sans&quot;; letter-spacing: normal; font-style: normal; font-weight: 400; white-space: pre; font-size: 16px; text-decoration: none solid rgb(255, 255, 255); direction: ltr; fill: rgb(255, 255, 255); fill-opacity: 1;" class="fills" id="fills-1a0d60be-24b9-80bd-8004-eb8ed6acc131">GENERATE</text></g></g><g id="strokes-1a0d60be-24b9-80bd-8004-eb8ed6acc130" class="strokes"><g class="inner-stroke-shape"><defs><clipPath id="inner-stroke-render-28-1a0d60be-24b9-80bd-8004-eb8ed6acc130-0"><use href="#stroke-shape-render-28-1a0d60be-24b9-80bd-8004-eb8ed6acc130-0"/></clipPath><rect width="132" height="39" class="frame-background" x="894" id="stroke-shape-render-28-1a0d60be-24b9-80bd-8004-eb8ed6acc130-0" style="fill: none; stroke-width: 2; stroke: rgb(255, 255, 255); stroke-opacity: 1;" ry="19.5" rx="19.5" y="290.5"/></defs><use href="#stroke-shape-render-28-1a0d60be-24b9-80bd-8004-eb8ed6acc130-0" clip-path="url('#inner-stroke-render-28-1a0d60be-24b9-80bd-8004-eb8ed6acc130-0')"/></g></g></g><g id="shape-f18d120e-35fd-801a-8004-eb97c9020281" data-testid="Board"><defs><clipPath id="frame-clip-f18d120e-35fd-801a-8004-eb97c9020281-render-30" class="frame-clip frame-clip-def"><rect rx="0" ry="0" x="408" y="350" width="1104" height="730"/></clipPath></defs><g clip-path="url(#frame-clip-f18d120e-35fd-801a-8004-eb97c9020281-render-30)"><g class="fills" id="fills-f18d120e-35fd-801a-8004-eb97c9020281"><rect rx="0" ry="0" x="408" y="350" width="1104" height="730" class="frame-background"/></g><g class="frame-children"><g id="shape-f18d120e-35fd-801a-8004-eb97c9020286" data-testid="Board"><defs><clipPath id="frame-clip-f18d120e-35fd-801a-8004-eb97c9020286-render-31" class="frame-clip frame-clip-def"><rect rx="8" ry="8" x="567" y="400" width="368" height="207"/></clipPath></defs><g clip-path="url(#frame-clip-f18d120e-35fd-801a-8004-eb97c9020286-render-31)"><g class="fills" id="fills-f18d120e-35fd-801a-8004-eb97c9020286"><rect rx="8" ry="8" x="567" y="400" width="368" height="207" class="frame-background"/></g><g class="frame-children"><g id="shape-f18d120e-35fd-801a-8004-eb97c9020292" data-testid="Board"><g class="fills" id="fills-f18d120e-35fd-801a-8004-eb97c9020292"><rect rx="0" ry="0" x="609.5" y="437" width="283" height="133" class="frame-background"/></g><g class="frame-children"><g class="text-container" id="shape-f18d120e-35fd-801a-8004-eb97c9020295" data-testid="UPLOAD"><defs><pattern patternUnits="userSpaceOnUse" x="714" y="449" width="73.734" height="23" id="fill-0-render-33-0"><rect width="73.734" height="23" style="fill: rgb(255, 255, 255); fill-opacity: 1;"/></pattern></defs><text x="714" y="471" dominant-baseline="ideographic" textLength="73.734" lengthAdjust="spacingAndGlyphs" style="text-transform: none; font-family: &quot;Plus Jakarta Sans&quot;; letter-spacing: normal; font-style: normal; font-weight: 400; white-space: pre; font-size: 18px; text-decoration: none solid rgb(255, 255, 255); direction: ltr; fill: rgb(255, 255, 255); fill-opacity: 1;" class="fills" id="fills-f18d120e-35fd-801a-8004-eb97c9020295">UPLOAD</text></g><g id="shape-f18d120e-35fd-801a-8004-eb97c9020294" data-testid="upload-svgrepo-com" style="fill: rgb(0, 0, 0);"><g id="shape-f18d120e-35fd-801a-8004-eb97c9020297" data-testid="svg-path"><path d="M743 503a8 8 0 0 1 16 0v2h2a7 7 0 1 1 0 14h-2a2 2 0 1 0 0 4h2c6.075 0 11-4.925 11-11 0-5.441-3.951-9.96-9.141-10.844C761.972 495.404 757.001 491 751 491s-10.972 4.404-11.859 10.156c-5.19.884-9.141 5.403-9.141 10.844 0 6.075 4.925 11 11 11h2a2 2 0 1 0 0-4h-2a7 7 0 1 1 0-14h2v-2Zm15.414 6.586-6-6a2 2 0 0 0-2.828 0l-6 6a2 2 0 1 0 2.828 2.828l2.586-2.586V521a2 2 0 1 0 4 0v-11.172l2.586 2.586a2 2 0 1 0 2.828-2.828Z" fill-rule="evenodd" clip-rule="evenodd" style="fill: rgb(255, 255, 255);" class="fills" id="fills-f18d120e-35fd-801a-8004-eb97c9020297"/></g></g><g class="text-container" id="shape-f18d120e-35fd-801a-8004-eb97c9020293" data-testid="Drag and drop you video or click to upload (*.mp4)"><defs><pattern patternUnits="userSpaceOnUse" x="609.5" y="543" width="282.781" height="15" id="fill-0-render-37-0"><rect width="282.781" height="15" style="fill: rgb(255, 255, 255); fill-opacity: 1;"/></pattern></defs><text x="609.5" y="557" dominant-baseline="ideographic" textLength="282.781" lengthAdjust="spacingAndGlyphs" style="text-transform: none; font-family: &quot;Plus Jakarta Sans&quot;; letter-spacing: normal; font-style: normal; font-weight: 400; white-space: pre; font-size: 12px; text-decoration: none solid rgb(255, 255, 255); direction: ltr; fill: rgb(255, 255, 255); fill-opacity: 1;" class="fills" id="fills-f18d120e-35fd-801a-8004-eb97c9020293">Drag and drop you video or click to upload (*.mp4)</text></g></g></g></g></g><g id="strokes-f18d120e-35fd-801a-8004-eb97c9020286" class="strokes"><g class="inner-stroke-shape"><defs><clipPath id="inner-stroke-render-31-f18d120e-35fd-801a-8004-eb97c9020286-0"><use href="#stroke-shape-render-31-f18d120e-35fd-801a-8004-eb97c9020286-0"/></clipPath><rect width="368" height="207" class="frame-background" x="567" id="stroke-shape-render-31-f18d120e-35fd-801a-8004-eb97c9020286-0" style="fill: none; stroke-width: 2; stroke: rgb(255, 255, 255); stroke-opacity: 1;" ry="8" rx="8" y="400"/></defs><use href="#stroke-shape-render-31-f18d120e-35fd-801a-8004-eb97c9020286-0" clip-path="url('#inner-stroke-render-31-f18d120e-35fd-801a-8004-eb97c9020286-0')"/></g></g></g><g id="shape-f18d120e-35fd-801a-8004-eb97c9020285" data-testid="Board"><defs><clipPath id="frame-clip-f18d120e-35fd-801a-8004-eb97c9020285-render-38" class="frame-clip frame-clip-def"><rect rx="8" ry="8" x="985" y="400" width="368" height="207"/></clipPath></defs><g clip-path="url(#frame-clip-f18d120e-35fd-801a-8004-eb97c9020285-render-38)"><g class="fills" id="fills-f18d120e-35fd-801a-8004-eb97c9020285"><rect rx="8" ry="8" x="985" y="400" width="368" height="207" class="frame-background"/></g><g class="frame-children"><g id="shape-f18d120e-35fd-801a-8004-eb97c902028d" data-testid="Board"><g class="fills" id="fills-f18d120e-35fd-801a-8004-eb97c902028d"><rect rx="0" ry="0" x="1060" y="454" width="218" height="99" class="frame-background"/></g><g class="frame-children"><g id="shape-f18d120e-35fd-801a-8004-eb97c902028f" data-testid="video[1]" style="fill: rgb(0, 0, 0);"><g id="shape-f18d120e-35fd-801a-8004-eb97c9020291" data-testid="svg-path"><path d="m1177 486 5.154-3.092c1.586-.952 2.379-1.428 3.032-1.367a1.998 1.998 0 0 1 1.426.808c.388.528.388 1.453.388 3.303v8.696c0 1.85 0 2.775-.388 3.303a1.998 1.998 0 0 1-1.426.808c-.653.061-1.446-.415-3.032-1.367L1177 494m-19.6 8h13.2c2.24 0 3.36 0 4.216-.436a3.991 3.991 0 0 0 1.748-1.748c.436-.856.436-1.976.436-4.216v-11.2c0-2.24 0-3.36-.436-4.216a3.991 3.991 0 0 0-1.748-1.748c-.856-.436-1.976-.436-4.216-.436h-13.2c-2.24 0-3.36 0-4.216.436a3.991 3.991 0 0 0-1.748 1.748c-.436.856-.436 1.976-.436 4.216v11.2c0 2.24 0 3.36.436 4.216a3.991 3.991 0 0 0 1.748 1.748c.856.436 1.976.436 4.216.436Z" fill="none" stroke-linejoin="round" style="fill: none;" class="fills" id="fills-f18d120e-35fd-801a-8004-eb97c9020291"/><g fill="none" stroke-linejoin="round" id="strokes-f18d120e-35fd-801a-8004-eb97c9020291" class="strokes"><path d="m1177 486 5.154-3.092c1.586-.952 2.379-1.428 3.032-1.367a1.998 1.998 0 0 1 1.426.808c.388.528.388 1.453.388 3.303v8.696c0 1.85 0 2.775-.388 3.303a1.998 1.998 0 0 1-1.426.808c-.653.061-1.446-.415-3.032-1.367L1177 494m-19.6 8h13.2c2.24 0 3.36 0 4.216-.436a3.991 3.991 0 0 0 1.748-1.748c.436-.856.436-1.976.436-4.216v-11.2c0-2.24 0-3.36-.436-4.216a3.991 3.991 0 0 0-1.748-1.748c-.856-.436-1.976-.436-4.216-.436h-13.2c-2.24 0-3.36 0-4.216.436a3.991 3.991 0 0 0-1.748 1.748c-.436.856-.436 1.976-.436 4.216v11.2c0 2.24 0 3.36.436 4.216a3.991 3.991 0 0 0 1.748 1.748c.856.436 1.976.436 4.216.436Z" style="fill: none; stroke-width: 3; stroke: rgb(255, 255, 255); stroke-opacity: 1;" class="stroke-shape"/></g></g></g><g class="text-container" id="shape-f18d120e-35fd-801a-8004-eb97c902028e" data-testid="Your processed video will appear here!"><defs><pattern patternUnits="userSpaceOnUse" x="1060" y="526" width="217.5" height="15" id="fill-0-render-43-0"><rect width="217.5" height="15" style="fill: rgb(255, 255, 255); fill-opacity: 1;"/></pattern></defs><text x="1060" y="540" dominant-baseline="ideographic" textLength="217.5" lengthAdjust="spacingAndGlyphs" style="text-transform: none; font-family: &quot;Plus Jakarta Sans&quot;; letter-spacing: normal; font-style: normal; font-weight: 400; white-space: pre; font-size: 12px; text-decoration: none solid rgb(255, 255, 255); direction: ltr; fill: rgb(255, 255, 255); fill-opacity: 1;" class="fills" id="fills-f18d120e-35fd-801a-8004-eb97c902028e">Your processed video will appear here!</text></g></g></g></g></g><g id="strokes-f18d120e-35fd-801a-8004-eb97c9020285" class="strokes"><g class="inner-stroke-shape"><defs><clipPath id="inner-stroke-render-38-f18d120e-35fd-801a-8004-eb97c9020285-0"><use href="#stroke-shape-render-38-f18d120e-35fd-801a-8004-eb97c9020285-0"/></clipPath><rect width="368" height="207" class="frame-background" x="985" id="stroke-shape-render-38-f18d120e-35fd-801a-8004-eb97c9020285-0" style="fill: none; stroke-width: 2; stroke: rgb(255, 255, 255); stroke-opacity: 1;" ry="8" rx="8" y="400"/></defs><use href="#stroke-shape-render-38-f18d120e-35fd-801a-8004-eb97c9020285-0" clip-path="url('#inner-stroke-render-38-f18d120e-35fd-801a-8004-eb97c9020285-0')"/></g></g></g><g id="shape-afff46ca-fbd1-80b9-8004-f12c3804d1c8" data-testid="Group"><g xmlns:xlink="http://www.w3.org/1999/xlink" xml:space="preserve" id="shape-afff46ca-fbd1-80b9-8004-f12bb6f167f7" data-testid="techs" style="fill: rgb(0, 0, 0);"><g id="shape-afff46ca-fbd1-80b9-8004-f12bb6f432ab" data-testid="svg-g" style="fill: rgb(0, 0, 0);"><g id="shape-afff46ca-fbd1-80b9-8004-f12bb6f45868" data-testid="svg-g" style="fill: rgb(0, 0, 0);"><g id="shape-afff46ca-fbd1-80b9-8004-f12bb6f4eb7e" data-testid="svg-path"><g class="fills" id="fills-afff46ca-fbd1-80b9-8004-f12bb6f4eb7e"><path d="M846.369 839.97c0 .653-.479 1.091-1.046 1.091v-.004c-.583.004-1.053-.434-1.053-1.086 0-.653.47-1.089 1.053-1.089.567-.001 1.046.436 1.046 1.088Zm.424 0c0-.895-.695-1.415-1.47-1.415-.78 0-1.476.52-1.476 1.415s.696 1.417 1.476 1.417c.775 0 1.47-.522 1.47-1.417Zm-1.714.12h.158l.365.641h.4l-.404-.668c.209-.015.38-.114.38-.395 0-.35-.241-.462-.648-.462h-.59v1.525h.339Zm0-.258v-.367h.236c.128 0 .304.01.304.167 0 .17-.091.2-.242.2Zm-8.187-7.662 1.833 5.016h-3.723Zm-1.963-1.953-4.225 10.707h2.983l.668-1.893h5l.632 1.893h3.239l-4.257-10.708Zm-8.482 10.71h3.027v-10.713l-3.027-.001Zm-21.01-10.714-2.525 8.492-2.419-8.491-3.266-.001 3.455 10.714h4.36l3.483-10.714Zm12.233 2.333h1.302c1.886 0 3.107.847 3.107 3.047 0 2.199-1.221 3.047-3.107 3.047h-1.302Zm-3.001-2.333v10.714h4.907c2.614 0 3.467-.434 4.391-1.409.651-.685 1.073-2.187 1.073-3.83 0-1.506-.356-2.849-.979-3.686-1.121-1.496-2.736-1.789-5.146-1.789ZM786 830.198v10.729h3.052v-8.146h2.365c.783 0 1.341.196 1.719.598.478.51.673 1.333.673 2.838v4.71h2.957V835c0-4.231-2.696-4.802-5.333-4.802Zm23.798.015.001 10.714h3.025v-10.714Z" class="fills" style="fill: rgb(255, 255, 255); fill-opacity: 1;"/></g></g><g id="shape-afff46ca-fbd1-80b9-8004-f12bb6f55bc9" data-testid="svg-path"><g class="fills" id="fills-afff46ca-fbd1-80b9-8004-f12bb6f55bc9"><path d="M794.134 808.88s3.892-5.745 11.664-6.339v-2.085c-8.608.692-16.063 7.985-16.063 7.985s4.223 12.209 16.063 13.327v-2.215c-8.689-1.093-11.664-10.673-11.664-10.673Zm11.664 6.267v2.029c-6.567-1.171-8.39-8-8.39-8s3.153-3.494 8.39-4.061v2.227l-.01-.001c-2.748-.33-4.896 2.238-4.896 2.238s1.204 4.324 4.906 5.568Zm0-18.534v3.843c.253-.019.506-.035.76-.044 9.787-.33 16.164 8.029 16.164 8.029s-7.324 8.909-14.954 8.909c-.7 0-1.355-.065-1.97-.174v2.377c.544.07 1.092.105 1.641.106 7.1 0 12.235-3.628 17.208-7.921.824.66 4.199 2.267 4.893 2.971-4.728 3.959-15.746 7.15-21.993 7.15-.602 0-1.18-.036-1.749-.091v3.34h26.99v-28.495Zm0 8.502v-2.574c.251-.018.503-.031.76-.039 7.038-.221 11.656 6.05 11.656 6.05s-4.987 6.927-10.335 6.927a6.456 6.456 0 0 1-2.081-.332v-7.805c2.741.33 3.291 1.542 4.939 4.288l3.664-3.09s-2.675-3.508-7.183-3.508c-.49 0-.959.034-1.42.083Z" class="fills" style="fill: rgb(255, 255, 255);"/></g></g></g><g id="shape-afff46ca-fbd1-80b9-8004-f12bb6f55bca" data-testid="svg-g" style="fill: rgb(0, 0, 0);"><g id="shape-afff46ca-fbd1-80b9-8004-f12bb6f6ba7f" data-testid="svg-path"><g class="fills" id="fills-afff46ca-fbd1-80b9-8004-f12bb6f6ba7f"><path d="M898.874 814.012c0 .748.076 1.357.22 1.805.16.445.365.931.646 1.459.09.14.139.302.141.468 0 .201-.122.407-.38.608l-1.277.851a.964.964 0 0 1-.524.183c-.205 0-.407-.099-.608-.281a6.31 6.31 0 0 1-.73-.954 15.85 15.85 0 0 1-.627-1.198c-1.577 1.866-3.556 2.801-5.942 2.801-1.699 0-3.055-.49-4.043-1.463-.992-.973-1.497-2.273-1.497-3.895 0-1.726.608-3.125 1.839-4.181 1.235-1.057 2.872-1.581 4.955-1.581.683 0 1.394.061 2.143.159.748.103 1.519.266 2.325.449v-1.482c0-1.543-.323-2.619-.95-3.246-.646-.631-1.74-.935-3.298-.935-.707 0-1.433.084-2.181.266-.744.177-1.474.407-2.185.688a5.728 5.728 0 0 1-.707.266 1.222 1.222 0 0 1-.323.061c-.285 0-.425-.205-.425-.631v-.996c0-.323.038-.57.14-.707.154-.186.349-.334.57-.429.703-.365 1.554-.669 2.546-.912.988-.266 2.041-.384 3.154-.384 2.405 0 4.164.547 5.297 1.642 1.113 1.094 1.679 2.759 1.679 4.994Zm-8.211 3.082c.665 0 1.352-.122 2.082-.365.726-.243 1.375-.692 1.919-1.3.325-.373.561-.817.688-1.296.121-.49.205-1.075.205-1.767v-.851a16.836 16.836 0 0 0-1.862-.342 15.094 15.094 0 0 0-1.9-.126c-1.356 0-2.348.266-3.013.814-.669.547-.988 1.318-.988 2.333 0 .95.239 1.661.745 2.151.486.506 1.193.749 2.124.749Zm16.236 2.193c-.365 0-.608-.061-.768-.205-.163-.122-.304-.403-.425-.791l-4.75-15.685a3.551 3.551 0 0 1-.186-.813c0-.323.163-.506.486-.506h1.984c.38 0 .646.061.786.202.164.121.285.406.407.79l3.397 13.435 3.153-13.435c.099-.403.221-.669.38-.79.244-.15.528-.22.813-.202h1.615c.388 0 .646.061.81.202.163.121.304.406.383.79l3.196 13.599 3.496-13.599c.064-.294.205-.567.406-.79.235-.15.512-.22.79-.202h1.881c.323 0 .506.164.506.506 0 .102-.023.205-.038.327a2.97 2.97 0 0 1-.145.505l-4.875 15.685c-.121.407-.262.673-.421.795-.23.146-.5.217-.772.201h-1.736c-.384 0-.646-.061-.81-.201-.163-.145-.304-.407-.383-.814l-3.135-13.085-3.116 13.07c-.099.407-.22.669-.38.81-.163.144-.448.205-.809.205Zm25.982.547a13.292 13.292 0 0 1-3.116-.365c-1.011-.243-1.797-.509-2.325-.813-.323-.182-.544-.384-.627-.57a1.418 1.418 0 0 1-.118-.566v-1.034c0-.426.159-.631.463-.631.125 0 .248.021.365.061.122.042.304.121.506.205.713.315 1.458.553 2.222.711.792.16 1.598.241 2.406.243 1.276 0 2.264-.224 2.952-.669a2.187 2.187 0 0 0 1.052-1.931 1.974 1.974 0 0 0-.547-1.417c-.361-.388-1.048-.734-2.04-1.057l-2.934-.912c-1.474-.467-2.568-1.159-3.233-2.071a4.85 4.85 0 0 1-1.011-2.942c0-.851.183-1.604.544-2.254a5.26 5.26 0 0 1 1.459-1.664 6.45 6.45 0 0 1 2.101-1.053c.809-.243 1.657-.346 2.546-.346.448 0 .912.019 1.356.08.464.061.889.144 1.315.228.403.099.79.197 1.151.323.365.121.646.243.851.365.239.119.447.292.608.505.13.198.193.433.179.669v.954c0 .426-.16.65-.464.65a2.112 2.112 0 0 1-.767-.243 9.222 9.222 0 0 0-3.884-.791c-1.151 0-2.063.183-2.69.57-.627.38-.95.973-.95 1.806 0 .566.202 1.052.608 1.44.403.384 1.152.768 2.223 1.114l2.873.912c1.455.467 2.507 1.117 3.134 1.949.627.833.927 1.787.927 2.843 0 .874-.178 1.661-.524 2.353a5.463 5.463 0 0 1-1.474 1.786c-.627.506-1.376.874-2.246 1.137a9.572 9.572 0 0 1-2.891.425Z" class="fills" style="fill: rgb(255, 255, 255);"/></g></g><g id="shape-afff46ca-fbd1-80b9-8004-f12bb6f6ba80" data-testid="svg-g" style="fill: rgb(0, 0, 0);"><g id="shape-afff46ca-fbd1-80b9-8004-f12bb6f6f619" data-testid="svg-path"><g class="fills" id="fills-afff46ca-fbd1-80b9-8004-f12bb6f6f619"><path d="M936.699 829.693c-6.649 4.929-16.315 7.548-24.625 7.548-11.646 0-22.141-4.321-30.067-11.504-.627-.57-.061-1.342.684-.894 8.576 4.991 19.15 8.016 30.093 8.016 7.375 0 15.484-1.543 22.946-4.709 1.114-.505 2.064.73.969 1.543Z" fill-rule="evenodd" clip-rule="evenodd" class="fills" style="fill: rgb(255, 255, 255);"/></g></g><g id="shape-afff46ca-fbd1-80b9-8004-f12bb6f6f61a" data-testid="svg-path"><g class="fills" id="fills-afff46ca-fbd1-80b9-8004-f12bb6f6f61a"><path d="M939.469 826.527c-.847-1.091-5.619-.524-7.781-.262-.646.084-.749-.487-.164-.912 3.8-2.68 10.05-1.908 10.776-1.015.73.912-.201 7.183-3.762 10.186-.543.467-1.067.228-.828-.38.809-2.015 2.61-6.537 1.759-7.617Z" fill-rule="evenodd" clip-rule="evenodd" class="fills" style="fill: rgb(255, 255, 255);"/></g></g></g></g><g id="shape-afff46ca-fbd1-80b9-8004-f12bb6f73b3a" data-testid="svg-g" style="fill: rgb(0, 0, 0);"><g id="shape-afff46ca-fbd1-80b9-8004-f12bb6f73b3b" data-testid="svg-path"><path d="M1119.268 803.27c-.217-.696-.739-1.262-1.391-1.61l-13.247-6.342c-.348-.174-.74-.218-1.087-.218-.348 0-.74 0-1.088.087l-13.247 6.386c-.652.305-1.13.87-1.304 1.61l-3.253 14.294c-.13.739.043 1.479.478 2.088l9.168 11.336c.522.522 1.261.87 2 .914h14.595c.783.087 1.523-.261 2.001-.914l9.168-11.336a2.981 2.981 0 0 0 .522-2.088Z" style="stroke-width: 0.0363404; fill: rgb(255, 255, 255);" class="fills" id="fills-afff46ca-fbd1-80b9-8004-f12bb6f73b3b"/></g><g id="shape-afff46ca-fbd1-80b9-8004-f12bb6f875c3" data-testid="svg-path"><path d="M1117.224 816.911c-.043 0-.087 0 0 0Zc-.087-.087-.174-.087-.261-.087-.174-.044-.347-.044-.522-.044-.087 0-.174 0-.261-.043h-.043c-.479-.044-1-.131-1.479-.261a.525.525 0 0 1-.304-.305c.042 0 0 0 0 0l-.348-.087c.174-1.261.087-2.566-.174-3.819a11.632 11.632 0 0 0-1.522-3.559l.261-.261v-.043c0-.131.043-.305.13-.392a7.814 7.814 0 0 1 1.218-.87l.261-.13c.174-.087.305-.174.479-.261.043-.044.087-.044.13-.087.043-.044 0-.044 0-.087.391-.305.479-.827.174-1.218a.83.83 0 0 0-.609-.305c-.217 0-.435.087-.609.218l-.042.043c-.043.044-.088.087-.131.087-.13.131-.261.261-.347.392-.043.087-.13.13-.174.174a5.747 5.747 0 0 1-1.087.957c-.088.044-.174.087-.261.087-.043 0-.13 0-.174-.044h-.043l-.347.218c-.348-.348-.74-.696-1.088-1.044-1.609-1.262-3.601-2.045-5.645-2.262l-.043-.348v.043c-.13-.087-.173-.217-.217-.348 0-.478 0-.957.087-1.479v-.043c0-.087.043-.174.043-.261.043-.174.043-.348.088-.522v-.261c.043-.435-.305-.87-.74-.914-.261-.043-.522.087-.74.305a.862.862 0 0 0-.261.609v.217c0 .174.043.348.088.522.042.087.042.174.042.261v.044c.088.478.088.957.088 1.479-.043.13-.088.261-.217.348v.087l-.043.348c-.479.044-.957.13-1.479.217-2.044.435-3.905 1.523-5.34 3.045l-.262-.174h-.042c-.043 0-.088.044-.174.044-.087 0-.174-.044-.261-.087a8.05 8.05 0 0 1-1.088-1c-.042-.087-.13-.131-.173-.174-.131-.131-.218-.261-.348-.392-.043-.044-.087-.044-.13-.087l-.043-.044a1.041 1.041 0 0 0-.609-.217c-.261 0-.478.087-.608.304a.936.936 0 0 0 .173 1.218c.043 0 .043.044.043.044s.088.087.131.087c.13.087.304.174.478.261l.261.131c.435.261.87.522 1.218.87.087.087.174.261.13.391v-.044l.261.261c-.043.087-.087.131-.13.218-1.348 2.131-1.914 4.646-1.522 7.125l-.348.087c0 .044-.043.044-.043.044-.042.131-.173.218-.304.305-.479.13-.957.217-1.479.261-.087 0-.174 0-.261.043-.174 0-.348.044-.522.044-.043 0-.088.044-.174.044-.043 0-.043 0-.087.043a.849.849 0 0 0-.696 1.001.808.808 0 0 0 .869.609c.088 0 .131 0 .218-.044.043 0 .043 0 .043-.044 0-.043.13 0 .173 0 .174-.043.348-.13.479-.174.087-.043.174-.087.261-.087h.043a7.738 7.738 0 0 1 1.435-.391h.043c.13 0 .261.044.347.13.043 0 .043.044.043.044l.391-.044a10.525 10.525 0 0 0 3.558 5.081c.391.305.74.566 1.174.783l-.217.305c0 .043.043.043.043.043a.51.51 0 0 1 .042.435c-.173.435-.434.87-.696 1.262v.044c-.042.087-.087.13-.173.217-.088.087-.174.261-.305.435-.043.044-.043.087-.087.131 0 0 0 .043-.043.043a.897.897 0 0 0 .347 1.175.823.823 0 0 0 .305.087c.348 0 .652-.218.826-.522 0 0 0-.044.043-.044 0-.044.043-.087.087-.13.043-.174.131-.305.174-.479l.087-.261c.131-.478.348-.913.565-1.348a.677.677 0 0 1 .348-.261c.043 0 .043 0 .043-.044l.174-.348a10.23 10.23 0 0 0 3.775.696c.782 0 1.565-.087 2.348-.305.479-.087.957-.261 1.392-.391l.173.304c.043 0 .043 0 .043.044.13.044.261.131.348.261.217.435.435.87.565 1.349v.043l.087.261c.043.174.088.348.174.479.043.043.043.087.087.13 0 0 0 .044.043.044.174.304.479.522.826.522.13 0 .218-.044.349-.087.173-.087.347-.261.391-.479a1.13 1.13 0 0 0-.043-.652c0-.044-.043-.044-.043-.044 0-.043-.043-.087-.087-.13a1.546 1.546 0 0 0-.305-.435c-.043-.087-.087-.131-.174-.218v-.087a5.144 5.144 0 0 1-.696-1.261.527.527 0 0 1 .043-.435c0-.044.043-.044.043-.044l-.13-.348c2.218-1.348 3.905-3.436 4.688-5.907l.348.043c.042 0 .042-.043.042-.043a.498.498 0 0 1 .349-.131h.043c.478.087.956.218 1.391.392h.043c.088.043.174.087.261.087.174.087.305.174.479.217.043 0 .087.044.174.044.042 0 .042 0 .087.044.087.043.13.043.218.043a.945.945 0 0 0 .869-.609 1.01 1.01 0 0 0-.77-.923Zm-12.551-1.348-1.174.565-1.174-.565-.305-1.262.826-1.044h1.305l.826 1.044Zm7.08-2.819c.218.914.261 1.827.174 2.741l-4.123-1.175c-.391-.087-.608-.478-.522-.87a.697.697 0 0 1 .174-.304l3.262-2.959c.47.783.817 1.653 1.035 2.567Zm-2.348-4.176-3.558 2.523c-.304.174-.739.13-.956-.174a.391.391 0 0 1-.13-.305l-.262-4.384c1.914.208 3.61 1.035 4.906 2.34Zm-7.863-2.219.87-.174-.218 4.342c0 .391-.347.696-.739.696-.131 0-.218-.044-.349-.087l-3.601-2.567c1.131-1.079 2.523-1.862 4.037-2.21Zm-5.297 3.828 3.218 2.872c.305.26.348.696.088 1-.088.131-.174.174-.348.218l-4.21 1.218a9.08 9.08 0 0 1 1.252-5.308Zm-.74 7.343 4.297-.739c.348 0 .696.217.74.565a.52.52 0 0 1-.043.435l-1.653 3.994c-1.513-1.001-2.731-2.515-3.341-4.255Zm9.864 5.386a8.834 8.834 0 0 1-1.87.217c-.914 0-1.87-.174-2.74-.435l2.131-3.863c.217-.261.565-.348.87-.174.13.087.217.174.347.305l2.088 3.776a6.939 6.939 0 0 0-.826.174Zm5.297-3.776a8.317 8.317 0 0 1-2.61 2.61l-1.696-4.08a.709.709 0 0 1 .392-.827c.13-.044.261-.087.391-.087l4.34.74c-.209.6-.47 1.165-.817 1.644Z" style="stroke-width: 0.0363404; fill: rgb(179, 179, 179);" class="fills" id="fills-afff46ca-fbd1-80b9-8004-f12bb6f875c3"/></g><g id="shape-afff46ca-fbd1-80b9-8004-f12bb6fa34c1" data-testid="svg-path"><path d="M1131.46 841.464c.221.016.457-.016.662-.095a.353.353 0 0 0 .19-.347c-.014-.158-.111-.3-.253-.347a3.384 3.384 0 0 0-.773-.347 6.159 6.159 0 0 1-.725-.316 2.169 2.169 0 0 1-.553-.379 1.501 1.501 0 0 1-.347-.536 1.998 1.998 0 0 1-.126-.742 1.632 1.632 0 0 1 .631-1.338c.426-.332.994-.489 1.717-.489.347 0 .71.031 1.057.11.268.047.536.111.804.205l-.299 1.338c-.221-.078-.426-.126-.647-.189a3.228 3.228 0 0 0-.773-.079c-.537 0-.805.142-.805.442 0 .063.015.126.032.189a.434.434 0 0 0 .142.158c.063.048.157.095.268.158.111.063.268.126.458.189.315.111.631.253.915.411.221.11.41.252.568.442.142.142.236.315.299.52.063.221.095.442.095.663a1.504 1.504 0 0 1-.678 1.354c-.442.3-1.073.458-1.89.458a4.76 4.76 0 0 1-1.338-.142c-.253-.063-.489-.142-.726-.221l.284-1.386c.284.111.584.205.883.269.313.015.613.047.928.047Zm-8.68-1.733a3.783 3.783 0 0 1 .236-1.385c.142-.379.363-.711.647-1.01a2.48 2.48 0 0 1 .915-.6c.347-.142.71-.205 1.073-.205.852 0 1.527.268 2.016.789.489.521.742 1.291.742 2.301 0 .094 0 .205-.014.331 0 .126-.015.221-.015.316h-3.846c.031.331.205.647.489.836.347.221.757.332 1.167.316.3 0 .616-.032.915-.079a3.13 3.13 0 0 0 .742-.237l.237 1.386c-.111.063-.237.094-.363.142-.174.047-.347.094-.521.11-.189.032-.379.063-.599.095a8.351 8.351 0 0 1-.647.031 3.615 3.615 0 0 1-1.417-.236 2.777 2.777 0 0 1-.994-.647 2.762 2.762 0 0 1-.584-.995 5 5 0 0 1-.179-1.259Zm3.988-.647c0-.142-.032-.284-.079-.426-.032-.142-.111-.252-.19-.363a1.078 1.078 0 0 0-.331-.268 1.058 1.058 0 0 0-.489-.111c-.174 0-.331.032-.489.111a1.09 1.09 0 0 0-.347.252 1.135 1.135 0 0 0-.221.379 2.104 2.104 0 0 0-.095.426h2.241Zm-8.605-3.907 1.7-.269v1.765h2.048v1.417h-2.045v2.111c-.014.3.048.6.19.853.126.205.379.315.773.315a3.17 3.17 0 0 0 1.089-.189l.236 1.322c-.22.095-.457.158-.694.221a4.545 4.545 0 0 1-.931.095 2.848 2.848 0 0 1-1.151-.189 1.866 1.866 0 0 1-.726-.521 2.18 2.18 0 0 1-.394-.821 3.985 3.985 0 0 1-.095-1.057v-5.053Zm-6.885 4.554a3.783 3.783 0 0 1 .236-1.385c.142-.379.363-.711.647-1.01.269-.269.568-.474.915-.6.347-.142.71-.205 1.073-.205.852 0 1.527.268 2.016.789.49.521.742 1.291.742 2.301 0 .094 0 .205-.014.331-.015.126-.015.221-.015.316h-3.859c.032.331.205.647.489.836.347.221.758.332 1.168.316.299 0 .615-.032.915-.079.252-.048.505-.126.757-.237l.237 1.386c-.111.063-.237.094-.363.142a3.1 3.1 0 0 1-.521.11c-.189.032-.378.063-.599.095a8.351 8.351 0 0 1-.647.031 3.618 3.618 0 0 1-1.417-.236 2.785 2.785 0 0 1-.994-.647 2.776 2.776 0 0 1-.584-.995 3.83 3.83 0 0 1-.182-1.259Zm3.988-.647c0-.142-.032-.284-.079-.426-.032-.142-.111-.252-.19-.363a1.066 1.066 0 0 0-.331-.268 1.055 1.055 0 0 0-.489-.111c-.173 0-.331.032-.489.111a1.027 1.027 0 0 0-.331.252 1.135 1.135 0 0 0-.221.379 2.104 2.104 0 0 0-.095.426h2.225Zm-10.445-2.206a12.7 12.7 0 0 1 1.12-.237 8.79 8.79 0 0 1 1.433-.11c.426-.016.852.063 1.262.205.316.11.6.3.805.552.205.253.347.553.426.868.094.363.126.742.126 1.121v3.389h-1.685v-3.172c0-.552-.079-.931-.221-1.167-.142-.221-.41-.348-.805-.348-.126 0-.252 0-.394.016-.142 0-.253.016-.363.032v4.633h-1.701l-.003-5.782Zm-1.198 1.307c-.158-.032-.332-.079-.537-.111a3.16 3.16 0 0 0-.662-.063c-.126 0-.253.016-.395.032a2.27 2.27 0 0 0-.331.063v4.586h-1.701v-5.704c.347-.126.71-.221 1.073-.299a5.154 5.154 0 0 1 1.385-.142c.111 0 .221.015.332.015.126 0 .252.016.394.048.126.015.252.031.394.063.111.016.221.047.332.094l-.284 1.418Zm-10.574 1.546a3.784 3.784 0 0 1 .237-1.385c.142-.379.363-.711.647-1.01a2.48 2.48 0 0 1 .915-.6c.347-.142.71-.205 1.072-.205.852 0 1.528.268 2.017.789.489.521.741 1.291.741 2.285 0 .095 0 .205-.014.331-.014.127-.014.221-.014.316h-3.859c.031.331.204.647.489.836.347.221.757.332 1.167.316.3 0 .615-.032.915-.079a3.96 3.96 0 0 0 .742-.221l.236 1.386c-.11.063-.236.094-.362.142-.174.047-.348.094-.521.11-.19.032-.379.063-.6.095a8.325 8.325 0 0 1-.646.031 3.612 3.612 0 0 1-1.417-.236 2.777 2.777 0 0 1-.994-.647 2.747 2.747 0 0 1-.584-.995 5.523 5.523 0 0 1-.167-1.259Zm4.007-.647c0-.142-.031-.284-.079-.426-.031-.142-.11-.252-.189-.363a1.09 1.09 0 0 0-.331-.268 1.06 1.06 0 0 0-.49-.111c-.173 0-.331.032-.489.111a1.1 1.1 0 0 0-.347.252 1.152 1.152 0 0 0-.221.379 2.036 2.036 0 0 0-.094.426h2.24Zm-6.762.552c0-1.104-.41-1.638-1.215-1.638-.173 0-.347.016-.521.064a1.328 1.328 0 0 0-.41.173v3.09c.079.016.19.032.316.047.126.016.268.016.426.016.41.032.804-.142 1.057-.473.236-.379.363-.821.347-1.279Zm1.732.064c0 .441-.063.883-.221 1.306-.126.379-.331.71-.599.994a2.872 2.872 0 0 1-.978.648c-.426.157-.868.22-1.323.22-.204 0-.426-.015-.646-.031-.221-.016-.442-.047-.663-.063-.205-.032-.41-.063-.615-.111a2.047 2.047 0 0 1-.521-.142v-8.433l1.701-.268v2.995c.189-.079.394-.142.599-.19.221-.047.442-.063.663-.063.394 0 .773.063 1.136.237a2.3 2.3 0 0 1 .82.631c.237.3.41.632.505.994.098.392.142.834.142 1.276Zm-7.185 2.774a8.665 8.665 0 0 1-1.12.221c-.473.079-.962.11-1.433.11a3.495 3.495 0 0 1-1.277-.205 2.07 2.07 0 0 1-.805-.568 2.369 2.369 0 0 1-.426-.899 4.553 4.553 0 0 1-.126-1.137v-3.323h1.701v3.137c0 .552.079.947.221 1.184.141.236.41.363.804.363.126 0 .253 0 .395-.016.142-.016.252-.016.362-.048v-4.62h1.701l.003 5.801Zm-9.927-3.627c.173-.189.331-.378.52-.568.174-.205.347-.394.521-.584.174-.205.331-.378.473-.552.142-.174.284-.331.395-.458h2.016c-.41.458-.805.916-1.183 1.339-.395.426-.805.868-1.262 1.306.252.237.489.474.71.742.236.284.473.568.71.884.22.3.441.615.631.915.189.3.347.584.473.836h-1.953c-.127-.205-.269-.41-.426-.647-.158-.236-.332-.473-.489-.725a7.875 7.875 0 0 0-.568-.695 3.79 3.79 0 0 0-.568-.552v2.632h-1.701v-8.632l1.701-.268v5.027Z" style="stroke-width: 0.0131835; fill: rgb(255, 255, 255);" class="fills" id="fills-afff46ca-fbd1-80b9-8004-f12bb6fa34c1"/></g></g><g id="shape-afff46ca-fbd1-80b9-8004-f12bb6fa5f95" data-testid="svg-path"><path d="M1006.918 805.197h5.097v5.212h2.578c1.19 0 2.414-.212 3.541-.594a9.086 9.086 0 0 0 1.722-.779c-.72-.939-1.087-2.126-1.195-3.295-.147-1.591.174-3.661 1.25-4.906l.536-.62.638.513c1.608 1.292 2.96 3.097 3.198 5.155 1.935-.57 4.208-.435 5.914.55l.7.404-.368.719c-1.443 2.817-4.46 3.689-7.409 3.535-4.413 10.994-14.021 16.199-25.67 16.199-6.018 0-11.54-2.25-14.684-7.591l-.052-.087-.458-.933c-1.063-2.351-1.416-4.926-1.176-7.5l.072-.769 4.359-.001v-5.212h5.096v-5.099h10.195V795h6.117l-.001 10.197Z" style="fill-rule: evenodd; stroke-width: 0.093134; fill: rgb(255, 255, 255);" class="fills" id="fills-afff46ca-fbd1-80b9-8004-f12bb6fa5f95"/></g><g id="shape-afff46ca-fbd1-80b9-8004-f12bb6fb2abf" data-testid="svg-path"><path d="M986.044 833.964v-3.648c0-.48.3-.865.796-.865h.137c.496 0 .795.386.795.865v7.68c0 1.873-.926 3.364-2.538 4.313a4.758 4.758 0 0 1-2.439.666h-.343c-1.873 0-3.361-.926-4.312-2.538a4.751 4.751 0 0 1-.665-2.441v-.342c0-1.873.926-3.363 2.537-4.314a4.74 4.74 0 0 1 2.44-.666h.343c1.267 0 2.342.492 3.249 1.29Zm-6.842 3.861c0 1.353.656 2.37 1.841 3.019.479.262 1 .403 1.546.403 1.328 0 2.313-.626 2.992-1.752a3.238 3.238 0 0 0 .463-1.705c0-1.173-.555-2.088-1.5-2.768a3.224 3.224 0 0 0-1.921-.619c-1.447 0-2.488.732-3.113 2.031a3.17 3.17 0 0 0-.308 1.391Zm14.562-5.151h.239c2.001 0 3.524.971 4.488 2.719.386.699.592 1.462.592 2.261v.342c0 1.873-.923 3.366-2.538 4.313a4.77 4.77 0 0 1-2.439.666h-.342c-1.873 0-3.361-.926-4.312-2.538a4.762 4.762 0 0 1-.666-2.441v-.342c0-1.874.93-3.358 2.536-4.314a4.727 4.727 0 0 1 2.442-.666Zm-3.25 5.151c0 1.313.644 2.279 1.753 2.959a3.2 3.2 0 0 0 1.703.463c1.297 0 2.256-.658 2.923-1.753a3.208 3.208 0 0 0 .463-1.704c0-1.221-.588-2.154-1.594-2.83a3.21 3.21 0 0 0-1.827-.557c-1.447 0-2.489.732-3.114 2.031a3.17 3.17 0 0 0-.307 1.391Zm15.75-3.284c-.261-.122-.749-.162-1.031-.173-1.443-.055-2.487.758-3.1 2.032a3.166 3.166 0 0 0-.308 1.39c0 1.48.777 2.516 2.098 3.148.482.23 1.105.274 1.632.274.464 0 1.119-.284 1.53-.48l.072-.034h.319l.035.008c.393.081.69.33.69.753v.171c0 1.052-1.922 1.293-2.656 1.344-2.588.179-4.523-1.242-5.261-3.712a4.473 4.473 0 0 1-.186-1.301v-.342c0-1.873.929-3.357 2.536-4.312a4.724 4.724 0 0 1 2.441-.667h.342a4.4 4.4 0 0 1 2.529.781l.062.043.04.066c.082.136.153.293.153.455v.171c0 .441-.33.678-.728.755l-.033.006h-.102c-.258 0-.844-.267-1.074-.376Zm5.602 1.17c.671-.672 1.345-1.342 2.026-2.003.189-.185.908-.965 1.191-.965h.309l.035.007c.394.082.689.332.689.755v.171c0 .289-.338.625-.525.823-.396.42-.814.827-1.22 1.239l-2.087 2.119c.898.901 1.796 1.803 2.687 2.71.247.251.493.503.736.757.086.091.213.203.285.328.077.118.124.25.124.391v.178l-.009.042c-.097.394-.347.712-.784.712h-.137c-.286 0-.609-.324-.805-.508-.403-.381-.793-.781-1.188-1.169l-1.326-1.303v2.082c0 .479-.3.864-.796.864h-.136c-.496 0-.795-.385-.795-.864v-11.728c0-.479.299-.863.795-.863h.136c.496 0 .796.384.796.863Zm21.528-2.968h.172c.518 0 .864.349.864.864 0 .716-.684.899-1.275.899-.776 0-1.517.469-2.051.996-.667.658-.959 1.5-.959 2.426v4.182c0 .48-.299.865-.796.865h-.136c-.497 0-.796-.385-.796-.865v-4.422c0-1.699.827-3.085 2.205-4.057a4.748 4.748 0 0 1 2.772-.888Zm-12.276 8.289c.628.22 1.345.188 1.99.076.33-.141 1.173-.509 1.484-.455l.048.008.045.022c.189.092.37.222.467.415.225.452.117.906-.327 1.163l-.148.085c-1.638.946-3.381.815-5.014-.068-.781-.423-1.378-1.049-1.819-1.813l-.103-.179c-1.052-1.822-.91-3.739.276-5.471.41-.599.945-1.062 1.571-1.424l.237-.137c1.543-.891 3.196-.829 4.781-.048a4.68 4.68 0 0 1 2.018 1.872l.086.149c.345.598-.102 1.12-.564 1.477-.537.414-1.078.912-1.592 1.356-1.146.989-2.291 1.981-3.436 2.972Zm-1.484-1.042c1.282-1.099 2.564-2.2 3.843-3.304.437-.377.916-.768 1.349-1.164-.348-.438-.929-.754-1.422-.943-.997-.379-1.979-.252-2.893.276-1.196.691-1.705 1.79-1.66 3.159.016.539.162 1.059.448 1.518a4.2 4.2 0 0 0 .335.458Z" style="fill-rule: evenodd; stroke-width: 0.093134; fill: rgb(255, 255, 255);" class="fills" id="fills-afff46ca-fbd1-80b9-8004-f12bb6fb2abf"/></g><g id="shape-afff46ca-fbd1-80b9-8004-f12bb6fb7fec" data-testid="svg-path"><path d="M983.592 821.057c1.344.086 2.582.116 3.715.091 2.226-.049 4.043-.312 5.419-.789.484-.151.731.56.257.741-.183.064-.374.123-.571.18-1.084.309-2.34.531-3.84.624-.051.003-.141.003-.193.006-.59.033-1.22.054-1.872.054-.712 0-1.441-.014-2.225-.054" style="fill-rule: evenodd; stroke-width: 0.093134; fill: rgb(179, 179, 179); fill-opacity: 1;" class="fills" id="fills-afff46ca-fbd1-80b9-8004-f12bb6fb7fec"/></g><g id="shape-afff46ca-fbd1-80b9-8004-f12bb6fba84f" data-testid="svg-path"><path d="M971.191 814.742h56.692c-1.234-.313-3.905-.736-3.465-2.354-2.245 2.598-7.658 1.822-9.024.541-1.521 2.207-10.377 1.368-10.995-.351-1.907 2.239-7.817 2.239-9.724 0-.618 1.719-9.474 2.558-10.995.351-1.366 1.281-6.779 2.057-9.024-.541.441 1.618-2.231 2.041-3.465 2.354Z" style="fill-rule: evenodd; stroke-width: 0.093134; fill: rgb(179, 179, 179); fill-opacity: 1;" class="fills" id="fills-afff46ca-fbd1-80b9-8004-f12bb6fba84f"/></g><g id="shape-afff46ca-fbd1-80b9-8004-f12bb6fba850" data-testid="svg-g" style="fill: rgb(0, 0, 0);"><g id="shape-afff46ca-fbd1-80b9-8004-f12bb6fbcee8" data-testid="svg-path" style="opacity: 1;"><path d="M992.747 817.269a1.22 1.22 0 1 1 .033 2.438 1.22 1.22 0 0 1-.033-2.438Z" style="fill-rule: evenodd; stroke-width: 0.158727; fill: rgb(179, 179, 179); fill-opacity: 1;" class="fills" id="fills-afff46ca-fbd1-80b9-8004-f12bb6fbcee8"/></g><g id="shape-afff46ca-fbd1-80b9-8004-f12bb6fbcee9" data-testid="svg-circle" style="opacity: 1;"><circle cx="992.764" cy="818.489" style="stroke-width: 0.436989; stroke-linejoin: round; stop-color: rgb(0, 0, 0); fill: rgb(255, 255, 255); fill-opacity: 1;" r=".871" class="fills" id="fills-afff46ca-fbd1-80b9-8004-f12bb6fbcee9"/></g></g><g id="shape-afff46ca-fbd1-80b9-8004-f12bb6fbceea" data-testid="svg-path"><path d="M993.95 818.229a.333.333 0 0 1-.278.15.348.348 0 0 1 0-.697c.027.018.239.388.278.547Z" style="stroke-width: 0.223369; stroke-linejoin: round; stop-color: rgb(0, 0, 0); fill: rgb(179, 179, 179); fill-opacity: 1;" class="fills" id="fills-afff46ca-fbd1-80b9-8004-f12bb6fbceea"/></g></g></g><g id="shape-afff46ca-fbd1-80b9-8004-f12c19ee9e1f" data-testid="hunter"><defs><pattern patternUnits="userSpaceOnUse" x="729.672" y="902" width="460.657" height="48" id="fill-0-render-69"><image id="fill-image-render-69-0" href="https://design.penpot.app/assets/by-file-media-id/4eb1e939-618a-80e7-8004-f12c19648ee6" preserveAspectRatio="xMidYMid slice" width="460.657" height="48" opacity="1"/></pattern></defs><rect rx="0" ry="0" x="729.672" y="902" width="460.657" height="48" fill="url(#fill-0-render-69)" class="fills" id="fills-afff46ca-fbd1-80b9-8004-f12c19ee9e1f"/></g></g></g></g></g></g></g></g></g></g></g></svg>